<svg width="128" height="128" viewBox="0 0 128 128" xmlns="http://www.w3.org/2000/svg">
  <!-- Background -->
  <rect width="128" height="128" fill="#f5f5f5" rx="16"/>
  
  <!-- Main Junita J shape with gradient -->
  <defs>
    <linearGradient id="juGradient" x1="0%" y1="0%" x2="100%" y2="100%">
      <stop offset="0%" style="stop-color:#7c3aed;stop-opacity:1" />
      <stop offset="100%" style="stop-color:#2563eb;stop-opacity:1" />
    </linearGradient>
  </defs>
  
  <!-- J shaped design -->
  <path d="M 45 25 L 75 25 L 75 35 L 55 35 L 55 80 Q 55 95 40 95 Q 30 95 28 85 L 38 83 Q 39 90 45 90 Q 55 90 55 82 L 55 35 Z" 
        fill="url(#juGradient)" stroke="none"/>
  
  <!-- Decorative element - UI widget indicator -->
  <rect x="80" y="45" width="30" height="30" fill="#06b6d4" rx="4" opacity="0.8"/>
  <circle cx="85" cy="50" r="2" fill="white"/>
  <circle cx="90" cy="50" r="2" fill="white"/>
  <circle cx="95" cy="50" r="2" fill="white"/>
  <circle cx="85" cy="60" r="2" fill="white"/>
  <circle cx="90" cy="60" r="2" fill="white"/>
  <circle cx="95" cy="60" r="2" fill="white"/>
  <circle cx="85" cy="70" r="2" fill="white"/>
  <circle cx="90" cy="70" r="2" fill="white"/>
  <circle cx="95" cy="70" r="2" fill="white"/>
  
  <!-- Text label -->
  <text x="64" y="118" font-family="Arial, sans-serif" font-size="10" font-weight="bold" 
        text-anchor="middle" fill="#7c3aed">JUNITA</text>
</svg>
